<svg width="337" height="412" viewBox="0 0 337 412" fill="none" xmlns="http://www.w3.org/2000/svg">
<path d="M143.98 218.446C161.72 213.366 179.26 209.926 195.06 225.326C200.07 219.526 204.83 213.616 210.02 208.106C216.27 201.466 222.54 194.766 229.46 188.866C234.94 184.196 242.15 185.056 247.92 189.476C251.42 192.156 252.65 195.916 251.42 199.676C249.64 205.136 247.38 210.586 244.4 215.466C239.22 223.936 233.32 231.966 228.57 238.936C232.51 243.296 236.79 246.786 239.44 251.256C243.94 258.836 233.96 259.196 232.42 263.596C233.21 267.146 234.44 270.476 234.62 273.856C235.05 282.176 231.09 286.346 222.83 286.436C218.7 286.476 214.54 286.036 210.44 285.446C207.31 284.996 205.37 285.436 202.79 288.026C195.21 295.636 187.38 303.226 178.62 309.366C167.44 317.196 154.86 317.686 142.74 311.006C139.06 308.976 138.18 310.286 136.97 313.126C134.1 319.856 131.38 326.666 128.14 333.226C125.8 337.966 123.01 342.556 119.9 346.826C115.26 353.176 109.85 353.116 105.06 346.646C98.95 338.396 94.85 329.156 93.41 318.916C92.48 312.276 93.92 310.966 100.75 311.546C102.24 311.676 103.94 311.336 105.2 311.936C111 314.726 113.36 311.316 115.61 306.206C109.21 304.556 102.98 303.196 96.91 301.326C91.85 299.766 86.69 298.116 82.1 295.556C78.46 293.526 76.76 294.396 74.23 297.126C65.29 306.766 56.12 316.196 46.91 325.576C41.75 330.826 40.83 330.666 36.01 324.996C28.84 316.576 25.66 306.516 24.38 295.816C24.05 293.016 25.05 290.046 25.52 286.596C34.87 288.986 39.78 295.976 46.19 302.226C50.93 295.496 55.37 289.196 60.06 282.546C57.2 280.126 54.49 277.986 51.95 275.676C45.77 270.056 41.99 263.166 39.54 255.076C33.1 233.786 32.93 211.976 34.39 190.246C35.86 168.326 44.24 148.316 55.82 129.736C59.62 123.636 61.27 117.746 60.46 110.116C58.82 94.5862 65.46 88.1262 77.89 87.7862C83.95 87.6262 88.71 85.1662 93.75 82.6962C101.07 79.1062 108.29 75.2862 115.76 72.0662C130.01 65.9262 142.83 69.1962 155.85 77.0662C170.56 85.9562 170.99 99.5062 170.16 113.616C169.17 130.356 166.99 147.066 161.41 162.976C157.84 173.146 152.67 182.756 149.04 192.906C146.18 200.906 144.57 209.356 142.4 217.606C142.93 217.876 143.46 218.156 143.98 218.446ZM189.86 229.926C179.3 221.166 167.42 219.286 155.08 221.316C149.7 222.196 142.01 221.426 141.27 230.216C135.77 229.676 135.54 229.496 135.41 224.916C135.18 216.746 135.93 208.846 138.45 200.876C146.36 175.876 153.75 150.706 161.17 125.556C165.68 110.276 160.94 96.8362 151.33 85.1162C148.28 81.3962 143.26 77.7762 138.7 77.0962C122.34 74.6662 108.2 81.0562 95.8 89.8062C97.74 96.9762 99.49 103.426 101.33 110.196C102.79 109.656 104.73 108.936 106.88 108.136C109.73 111.006 108.7 113.066 105.59 114.656C101.89 116.546 97.99 118.086 94.48 120.266C92.64 121.416 91.45 123.616 89.97 125.336C92.33 125.746 94.78 126.676 97.03 126.346C98.34 126.156 99.35 123.926 101.16 121.866C102.94 123.276 105.1 124.996 107.26 126.706C106.74 127.456 106.23 128.216 105.71 128.966C97.77 131.746 89.68 131.716 81.66 129.006C80.62 128.656 80.06 126.076 79.83 124.446C79.67 123.326 80.48 122.076 80.95 120.606C76.76 119.926 73.06 119.196 69.33 118.806C68.49 118.716 67.01 119.576 66.72 120.346C65.38 123.816 64.36 127.396 63.15 131.166C87.82 136.196 111.85 141.106 134.94 149.836C129.62 150.156 124.38 150.026 119.27 149.116C100.49 145.746 81.76 142.156 63.03 138.526C60.05 137.946 58.48 138.646 57.29 141.556C54.34 148.786 50.98 155.856 47.96 163.056C45.85 168.096 43.14 173.096 42.23 178.376C39.41 194.826 38.49 211.416 40.74 228.076C42.29 239.506 44.58 250.786 50.39 260.866C61.26 279.716 79.17 288.736 99.14 294.496C106.62 296.656 114.26 298.256 121.77 300.336C125.4 301.346 126.6 303.486 124.13 307.036C121.66 310.576 119.57 314.376 117.25 318.026C114.06 323.026 111.88 323.586 106.43 320.946C104.62 320.066 102.8 319.216 100.99 318.356C102.06 324.336 103.54 329.666 106.17 334.356C108.15 337.896 111.59 340.626 114.38 343.726C117.11 340.786 120.79 338.276 122.38 334.806C126.45 325.926 129.76 316.686 133.01 307.466C134.22 304.036 135.95 302.556 139.53 303.096C143.97 303.756 148.48 304.076 152.88 304.936C162.43 306.816 171.39 306.246 179.37 299.926C184.72 295.686 190.39 291.836 195.49 287.326C197.73 285.346 199.76 282.376 200.45 279.516C204.57 262.466 192.51 245.396 174.98 243.426C168.41 242.686 161.73 243.026 155.12 242.576C152.77 242.416 150.47 241.366 148.15 240.716C158.26 234.956 168.62 233.506 179.02 235.566C184.85 236.726 187.1 233.916 189.86 229.926ZM188.8 238.146C191.56 240.086 194.31 241.696 196.69 243.746C205.17 251.046 210.46 260.076 209.27 271.566C208.46 279.386 207.95 279.356 215.57 281.086C217.18 281.456 219 282.216 220.42 281.786C223.58 280.836 227.77 280.006 229.2 277.686C230.4 275.746 228.92 271.406 227.47 268.766C225.57 265.326 222.52 262.516 219.93 259.396C223.06 259.626 226.04 260.516 228.59 259.826C230.9 259.196 232.74 256.846 234.78 255.246C232.97 253.326 231.47 250.326 229.27 249.676C223.54 247.976 217.89 246.466 212.91 242.086C220.44 234.256 228.06 227.046 234.79 219.086C238.99 214.126 242.33 208.256 245.15 202.366C246.94 198.636 246.01 194.356 241.81 191.986C238.34 190.036 233.44 191.806 230.44 195.506C226.89 199.886 223.43 204.396 219.45 208.376C209.47 218.356 199.22 228.056 188.8 238.146ZM74.39 291.976C65.88 285.486 66 285.576 60.48 292.596C56.24 297.996 51.67 303.126 46.96 308.726C40.62 302.446 35.12 296.986 29.08 291.006C26.94 303.546 32.71 312.186 38.7 320.636C39.3 321.486 42.65 321.636 43.55 320.816C53.83 311.456 63.9 301.856 74.39 291.976ZM90.45 94.2262C89.34 98.0262 89.01 102.036 87.07 104.976C85.13 107.906 81.58 109.776 78.61 112.216C86.8 115.786 92.11 114.996 94.7 110.016C97.14 105.306 94.75 96.7962 90.45 94.2262Z" fill="black"/>
<path d="M30.5 381.016C33.06 381.016 34.53 381.016 36.01 381.016C40.31 381.026 44.06 382.286 45.75 386.556C47.49 390.966 47.38 395.366 44.01 399.176C36.7 407.426 26.92 410.346 16.47 411.456C15.28 411.586 13.04 409.846 12.68 408.576C8.27997 393.266 4.01997 377.906 0.0799704 362.466C-0.35003 360.796 0.86997 357.846 2.29997 356.706C8.63997 351.666 21.81 351.606 28.81 356.136C37.35 361.656 38.8 370.166 32.58 378.196C32.1 378.836 31.64 379.476 30.5 381.016ZM13.67 386.066C18.74 381.556 23.37 377.806 27.55 373.606C31.05 370.086 30.48 366.066 26.53 362.896C20.96 358.416 14.69 359.056 8.53997 361.076C7.39997 361.446 6.07997 364.426 6.45997 365.716C8.41997 372.186 10.92 378.496 13.67 386.066ZM18.61 404.396C26.23 403.066 32.88 401.046 37.87 395.756C39.12 394.436 39.4 391.936 39.52 389.946C39.56 389.276 37.75 387.906 36.73 387.856C29.16 387.466 22.11 389.316 15.34 392.906C16.5 396.956 17.48 400.426 18.61 404.396Z" fill="black"/>
<path d="M20.12 11.8362C34.82 12.3362 45.7 22.1962 45.75 35.3262C45.77 40.6862 43.84 45.3262 39.97 48.6562C33.69 54.0562 26.92 58.8862 20.37 63.9562C18.68 65.2662 17.06 66.6862 15.28 67.8762C13.81 68.8662 11.56 70.6762 10.72 70.2062C9.31 69.4262 8.19 67.1961 7.94 65.4361C7 58.8661 6.62 52.2162 5.76 45.6362C4.64 37.0762 3.05 28.5762 2.14 19.9962C1.96 18.3062 3.61 15.2062 5.03 14.7862C9.91 13.3162 15.06 12.7462 20.12 11.8362ZM14.42 58.7561C14.9 59.0861 15.39 59.4062 15.87 59.7362C22.35 54.4262 29.17 49.4562 35.23 43.6961C40.63 38.5661 40.2 30.8962 35.18 25.3062C29.96 19.4962 19.39 16.9362 12.17 20.1062C11.05 20.5962 10.02 22.9062 10.11 24.2962C10.43 29.2661 11.25 34.2062 11.89 39.1562C12.73 45.6862 13.57 52.2261 14.42 58.7561Z" fill="black"/>
<path d="M175.96 28.5161C184.14 34.8661 191.34 40.4662 198.55 46.0662C199.47 46.7762 200.78 47.3461 201.18 48.2861C201.87 49.8961 201.98 51.7561 202.33 53.5161C200.56 53.5161 198.27 54.2462 197.11 53.4062C191.3 49.2362 185.83 44.6162 180.16 40.2462C178.08 38.6362 175.82 37.2661 172.98 35.3461C172.98 39.4161 172.98 42.7661 172.98 46.1261C172.98 47.9561 173.42 49.9562 172.83 51.5662C172.33 52.9362 170.62 53.8562 169.45 54.9762C168.47 53.8462 166.67 52.7462 166.62 51.5662C165.95 36.1062 165.44 20.6361 165.19 5.16615C165.17 3.76615 167.22 2.33615 168.3 0.926147C169.42 2.43615 171.39 3.88615 171.5 5.47615C171.89 11.0861 171.65 16.7461 171.65 23.3561C173.78 22.4261 175.21 21.8661 176.59 21.1961C183.32 17.9361 190.02 14.5961 196.77 11.3961C198.25 10.6961 200.01 9.84615 201.5 10.0561C203.31 10.3161 204.97 11.6361 206.69 12.4861C205.38 13.8561 204.31 15.7461 202.71 16.4961C194.08 20.5561 185.29 24.3561 175.96 28.5161Z" fill="black"/>
<path d="M124.2 49.2461C117.4 47.6761 110.04 46.7561 103.29 44.2261C92.6201 40.2361 89.5501 31.0061 95.4901 21.2161C101.23 11.7561 109.7 5.82614 121.24 5.82614C122.79 5.82614 124.34 7.82614 125.9 8.89614C124.38 10.0261 122.91 12.0661 121.33 12.1461C112.5 12.5961 106.27 17.2561 101.6 24.1161C97.3801 30.3161 98.9101 35.3861 105.79 38.1061C116.28 42.2461 127.09 43.2761 138.01 39.6961C140.38 38.9161 143.02 37.9061 143.71 40.9861C144.01 42.3261 141.89 45.2761 140.33 45.7561C135.3 47.3161 130.03 48.0561 124.2 49.2461Z" fill="black"/>
<path d="M137.34 371.316C129.51 374.116 123.18 376.616 116.68 378.536C114.98 379.036 112.74 377.746 110.75 377.276C111.94 375.616 112.8 372.996 114.37 372.456C129.8 367.216 145.34 362.316 160.86 357.346C162.12 356.946 163.61 356.346 164.73 356.686C166.23 357.146 167.47 358.436 168.82 359.366C167.79 360.646 167 362.666 165.7 363.076C160 364.886 154.2 366.446 148.35 367.676C144.63 368.466 143.34 370.076 143.29 374.026C143.19 381.156 142.52 388.316 141.47 395.366C141.2 397.196 138.59 400.116 137.18 400.056C133.64 399.886 134.65 396.926 134.99 394.326C135.94 387.126 136.5 379.856 137.34 371.316Z" fill="black"/>
<path d="M101.68 380.666C99.75 385.966 98.62 391.646 95.78 396.276C90.55 404.806 80.97 404.876 74.56 397.136C69.86 391.456 69.25 384.706 69.89 377.786C69.99 376.666 71.98 374.916 73.1 374.906C74.21 374.896 75.87 376.546 76.32 377.806C76.9 379.446 76.19 381.506 76.63 383.226C77.48 386.546 78.15 390.136 79.97 392.916C82.77 397.206 87.05 396.896 90.23 392.836C94.49 387.406 94.84 377.366 91.41 371.066C90.61 369.596 91.21 367.366 91.17 365.486C93.1 366.176 96.05 366.326 96.76 367.666C98.81 371.516 99.94 375.846 101.68 380.666Z" fill="black"/>
<path d="M211.92 357.716C213.02 364.576 214.27 370.916 214.92 377.326C215.1 379.106 213.91 382.236 212.61 382.706C209.71 383.756 208.86 381.156 208.46 378.616C207.47 372.416 206.36 366.226 205.2 359.526C201.18 360.436 197.69 361.326 194.15 362.006C191.72 362.476 189.19 363.026 186.78 362.806C185.61 362.696 184.03 361.056 183.71 359.836C183.49 358.986 184.93 356.906 185.94 356.656C199 353.446 212.11 350.376 225.26 347.556C226.49 347.296 228.13 348.916 229.58 349.656C228.54 351.056 227.77 353.226 226.4 353.716C221.74 355.356 216.88 356.396 211.92 357.716Z" fill="black"/>
<path d="M68 15.0061C68.97 14.0061 70.35 12.5861 71.72 11.1661C72.9 12.6561 74.75 13.9861 75.15 15.6661C77.38 25.0261 79.39 34.4561 81.14 43.9161C81.45 45.5761 80.15 47.5361 79.6 49.3561C78.03 48.2361 75.76 47.4561 75.05 45.9361C73.51 42.6561 72.52 39.0561 71.77 35.4961C70.41 29.1661 69.4 22.7561 68 15.0061Z" fill="black"/>
<path d="M326.1 182.876C328.16 178.426 329.76 174.626 331.68 170.986C332.28 169.856 333.74 169.186 334.81 168.306C335.37 169.536 336.37 170.756 336.41 172.006C336.59 177.086 336.49 182.176 336.49 187.456C333.7 186.106 333.7 186.106 332.59 176.806C331.15 180.126 330.4 182.376 329.22 184.376C328.56 185.506 327.19 186.916 326.14 186.926C325.06 186.936 323.66 185.566 322.97 184.456C321.86 182.676 321.22 180.596 320.3 178.456C319.87 181.716 319.47 184.646 319.08 187.586C318.35 187.526 317.63 187.466 316.9 187.406C316.6 181.876 316.22 176.356 316.07 170.826C316.05 170.126 317.42 168.696 317.69 168.796C318.82 169.226 320.23 169.886 320.73 170.876C322.58 174.536 324.12 178.366 326.1 182.876Z" fill="black"/>
<path d="M294.66 178.866C294.76 173.016 298.51 167.906 302.73 167.866C307.34 167.826 310.96 172.626 310.85 178.626C310.76 183.336 306.34 187.936 302.07 187.776C297.6 187.606 294.57 183.966 294.66 178.866ZM309.2 178.016C306.52 175.216 304.77 171.816 302.87 171.726C298.47 171.516 298.44 175.626 298.3 178.976C298.17 182.126 299.88 184.686 302.78 184.056C304.88 183.586 306.46 180.726 309.2 178.016Z" fill="black"/>
<path d="M289.53 175.426C285.6 174.016 282.86 168.616 279.55 173.286C277.88 175.636 276.69 180.066 277.8 182.316C280.44 187.666 285.01 184.016 289.71 181.936C288.26 187.736 284.85 188.176 281.21 187.926C275.66 187.546 273.08 184.356 273.36 178.546C273.61 173.396 278.65 167.506 282.87 168.036C286.36 168.466 289.21 170.276 289.53 175.426Z" fill="black"/>
<path d="M189.86 229.926C187.1 233.916 184.85 236.736 179.01 235.576C168.61 233.516 158.25 234.966 148.14 240.726C150.46 241.366 152.75 242.416 155.11 242.586C161.72 243.036 168.4 242.696 174.97 243.436C192.5 245.406 204.56 262.476 200.44 279.526C199.75 282.396 197.72 285.356 195.48 287.336C190.38 291.836 184.71 295.696 179.36 299.936C171.38 306.256 162.42 306.836 152.87 304.946C148.47 304.076 143.96 303.766 139.52 303.106C135.95 302.576 134.21 304.056 133 307.476C129.74 316.696 126.44 325.936 122.37 334.816C120.78 338.286 117.1 340.786 114.37 343.736C111.58 340.646 108.14 337.916 106.16 334.366C103.54 329.676 102.05 324.346 100.98 318.366C102.79 319.226 104.61 320.076 106.42 320.956C111.87 323.596 114.06 323.036 117.24 318.036C119.56 314.396 121.65 310.586 124.12 307.046C126.59 303.496 125.39 301.356 121.76 300.346C114.25 298.266 106.62 296.666 99.1299 294.506C79.1499 288.736 61.2399 279.726 50.3799 260.876C44.5699 250.796 42.2799 239.516 40.7299 228.086C38.4799 211.426 39.3999 194.836 42.2199 178.386C43.1299 173.106 45.8399 168.096 47.9499 163.066C50.9699 155.866 54.3299 148.796 57.2799 141.566C58.4599 138.656 60.0399 137.956 63.0199 138.536C81.7499 142.166 100.49 145.756 119.26 149.126C124.36 150.046 129.61 150.166 134.93 149.846C111.84 141.126 87.8099 136.216 63.1399 131.176C64.3499 127.406 65.3699 123.816 66.7099 120.356C67.0099 119.586 68.4799 118.726 69.3199 118.816C73.0499 119.206 76.7399 119.936 80.9399 120.616C80.4699 122.096 79.6699 123.346 79.8199 124.456C80.0499 126.086 80.6099 128.666 81.6499 129.016C89.6799 131.726 97.7699 131.756 105.7 128.976C106.22 128.226 106.73 127.466 107.25 126.716C105.09 125.006 102.94 123.296 101.15 121.876C99.3399 123.936 98.3299 126.166 97.0199 126.356C94.7599 126.686 92.3199 125.746 89.9599 125.346C91.4399 123.616 92.6199 121.416 94.4699 120.276C97.9799 118.096 101.89 116.556 105.58 114.666C108.69 113.076 109.72 111.006 106.87 108.146C104.72 108.946 102.78 109.666 101.32 110.206C99.4899 103.436 97.7399 96.9862 95.7899 89.8162C108.19 81.0662 122.32 74.6762 138.69 77.1062C143.25 77.7862 148.27 81.4061 151.32 85.1261C160.93 96.8361 165.66 110.286 161.16 125.566C153.74 150.716 146.36 175.886 138.44 200.886C135.92 208.856 135.16 216.756 135.4 224.926C135.53 229.506 135.76 229.686 141.26 230.226C141.99 221.446 149.69 222.216 155.07 221.326C167.42 219.286 179.3 221.166 189.86 229.926ZM117.58 176.576C116.76 176.276 115.94 175.986 115.11 175.686C113.65 177.806 111.43 179.736 110.86 182.066C108.82 190.416 107.53 198.946 105.59 207.336C102.51 220.666 100.48 234.466 86.4199 242.056C81.6099 244.656 82.7399 248.826 87.9599 252.046C89.9399 253.266 91.9399 254.926 93.1299 256.866C96.4499 262.286 101.4 262.936 105.58 258.086C106.83 256.636 107.94 255.066 108.62 254.186C111.62 255.036 115 256.846 115.81 256.056C118.01 253.876 119.92 250.736 120.4 247.716C120.75 245.516 119.31 242.176 117.54 240.636C112.84 236.536 113.05 232.056 115.28 227.146C120.15 216.436 125.41 205.886 129.91 195.016C131.21 191.866 130.75 187.836 130.48 184.266C130.4 183.226 128.18 182.346 126.95 181.396C126.17 182.586 125.14 183.686 124.66 184.986C120.26 196.966 115.97 208.976 111.63 220.976C108.66 229.176 107.31 236.946 114.93 243.816C117.7 246.316 117.95 249.876 114.05 252.976C112.7 251.406 111.65 249.936 110.35 248.736C109.32 247.786 107.9 246.446 106.83 246.596C105.9 246.726 105.09 248.616 104.47 249.856C103.73 251.326 103.49 253.096 102.58 254.416C100.84 256.946 98.2599 256.606 97.9599 253.856C97.4999 249.716 95.7799 248.596 91.9799 248.766C90.5499 248.826 89.0599 247.706 86.0899 246.516C89.8999 244.336 92.4099 242.576 95.1699 241.396C98.4699 239.986 100.31 237.956 101.42 234.376C106.03 219.466 111.21 204.726 115.78 189.806C117.09 185.616 117.03 180.996 117.58 176.576ZM157.78 121.846C156.29 119.036 155.49 115.186 153.16 113.626C148.61 110.576 143.4 108.136 138.12 106.646C125.53 103.096 111.49 116.516 113.87 129.396C114.01 130.176 114.59 130.876 114.91 131.626C117.9 138.686 124.94 138.766 130.77 140.266C144.56 143.826 156.56 135.306 157.78 121.846ZM162.28 233.576C164.14 231.796 165.27 230.726 166.4 229.646C164.86 228.056 163.54 225.986 161.66 225.106C160.93 224.756 158.94 227.056 157.53 228.156C158.91 229.726 160.28 231.296 162.28 233.576ZM172.07 257.636C170.17 255.166 169.08 253.746 167.99 252.326C166.44 254.276 164.89 256.236 163.35 258.186C164.49 259.076 165.72 260.796 166.74 260.676C168.31 260.486 169.74 259.056 172.07 257.636ZM155.99 281.296C153.55 283.206 151.88 284.526 150.2 285.836C152.25 286.956 154.22 288.366 156.42 288.996C157.02 289.166 159.12 286.946 159.05 285.916C158.96 284.566 157.41 283.306 155.99 281.296ZM157.19 272.476C157.58 271.626 157.98 270.766 158.37 269.916C157.1 269.556 155.24 268.476 154.67 268.956C152.58 270.706 150.8 272.896 149.2 275.136C148.94 275.496 150.23 276.956 150.8 277.906C152.93 276.096 155.06 274.286 157.19 272.476ZM161.04 302.456C162.86 300.366 164.21 298.826 165.55 297.286C164.21 296.306 162.61 294.286 161.58 294.536C157.94 295.456 158.42 298.076 161.04 302.456Z" fill="white"/>
<path d="M188.8 238.146C199.23 228.056 209.47 218.356 219.45 208.386C223.43 204.406 226.89 199.896 230.44 195.516C233.44 191.816 238.35 190.046 241.81 191.996C246.01 194.356 246.94 198.636 245.15 202.376C242.33 208.266 238.99 214.136 234.79 219.096C228.06 227.056 220.44 234.266 212.91 242.096C217.9 246.486 223.54 247.986 229.27 249.686C231.46 250.336 232.96 253.326 234.78 255.256C232.73 256.846 230.9 259.206 228.59 259.836C226.04 260.526 223.05 259.636 219.93 259.406C222.52 262.526 225.57 265.336 227.47 268.776C228.93 271.416 230.4 275.756 229.2 277.696C227.76 280.016 223.57 280.846 220.42 281.796C219 282.226 217.18 281.466 215.57 281.096C207.96 279.366 208.47 279.396 209.27 271.576C210.46 260.086 205.17 251.056 196.69 243.756C194.31 241.696 191.56 240.086 188.8 238.146Z" fill="white"/>
<path d="M74.3899 291.976C63.8999 301.856 53.8299 311.456 43.5399 320.806C42.6399 321.626 39.2899 321.466 38.6899 320.626C32.6999 312.186 26.9299 303.546 29.0699 290.996C35.1099 296.986 40.6099 302.436 46.9499 308.716C51.6599 303.116 56.2299 297.986 60.4699 292.586C65.9899 285.576 65.8799 285.486 74.3899 291.976Z" fill="white"/>
<path d="M90.4499 94.2261C94.7399 96.7961 97.1399 105.316 94.6899 110.016C92.0999 114.986 86.7899 115.786 78.5999 112.216C81.5699 109.776 85.1199 107.916 87.0599 104.976C89.0099 102.036 89.3399 98.0261 90.4499 94.2261Z" fill="white"/>
<path d="M117.58 176.576C117.02 181.006 117.09 185.616 115.8 189.816C111.23 204.736 106.04 219.476 101.44 234.386C100.33 237.966 98.4999 240.006 95.1899 241.406C92.4299 242.576 89.9199 244.346 86.1099 246.526C89.0799 247.716 90.5599 248.836 91.9999 248.776C95.7999 248.606 97.5099 249.726 97.9799 253.866C98.2899 256.616 100.86 256.956 102.6 254.426C103.51 253.106 103.75 251.336 104.49 249.866C105.12 248.636 105.92 246.736 106.85 246.606C107.92 246.456 109.34 247.796 110.37 248.746C111.67 249.946 112.72 251.416 114.07 252.986C117.97 249.886 117.73 246.326 114.95 243.826C107.33 236.956 108.68 229.186 111.65 220.986C115.99 208.986 120.29 196.976 124.68 184.996C125.16 183.696 126.19 182.596 126.97 181.406C128.21 182.356 130.42 183.236 130.5 184.276C130.77 187.856 131.24 191.876 129.93 195.026C125.43 205.896 120.17 216.436 115.3 227.156C113.07 232.066 112.86 236.536 117.56 240.646C119.33 242.186 120.77 245.526 120.42 247.726C119.94 250.736 118.03 253.886 115.83 256.066C115.03 256.866 111.64 255.046 108.64 254.196C107.96 255.076 106.85 256.646 105.6 258.096C101.42 262.936 96.4699 262.296 93.1499 256.876C91.9599 254.926 89.9599 253.276 87.9799 252.056C82.7699 248.836 81.6299 244.666 86.4399 242.066C100.5 234.476 102.52 220.676 105.61 207.346C107.55 198.966 108.84 190.436 110.88 182.076C111.45 179.746 113.67 177.806 115.13 175.696C115.94 175.976 116.76 176.276 117.58 176.576Z" fill="black"/>
<path d="M157.78 121.846C156.56 135.316 144.56 143.826 130.77 140.266C124.94 138.766 117.89 138.696 114.91 131.626C114.59 130.866 114.01 130.176 113.87 129.396C111.49 116.516 125.53 103.086 138.12 106.646C143.4 108.136 148.61 110.576 153.16 113.626C155.49 115.176 156.29 119.026 157.78 121.846ZM144.06 111.326C143.1 116.646 143.66 122.896 140.84 126.496C138 130.106 131.8 131.076 125.7 133.816C131.86 134.866 136.95 136.036 142.1 136.436C143.77 136.566 146.12 135.126 147.25 133.686C151.79 127.926 150.04 116.886 144.06 111.326Z" fill="black"/>
<path d="M162.28 233.576C160.29 231.296 158.91 229.716 157.53 228.146C158.94 227.056 160.93 224.756 161.66 225.096C163.54 225.986 164.86 228.046 166.4 229.636C165.27 230.726 164.14 231.806 162.28 233.576Z" fill="black"/>
<path d="M172.07 257.636C169.74 259.056 168.31 260.496 166.73 260.676C165.71 260.796 164.48 259.086 163.34 258.186C164.89 256.236 166.44 254.276 167.98 252.326C169.08 253.746 170.17 255.166 172.07 257.636Z" fill="black"/>
<path d="M155.99 281.296C157.41 283.306 158.96 284.566 159.05 285.926C159.12 286.956 157.02 289.176 156.42 289.006C154.23 288.376 152.26 286.966 150.2 285.846C151.88 284.526 153.56 283.206 155.99 281.296Z" fill="black"/>
<path d="M157.19 272.476C155.06 274.286 152.94 276.096 150.81 277.906C150.24 276.956 148.95 275.496 149.21 275.136C150.8 272.896 152.58 270.716 154.68 268.956C155.25 268.486 157.11 269.556 158.38 269.916C157.97 270.776 157.58 271.626 157.19 272.476Z" fill="black"/>
<path d="M161.04 302.456C158.43 298.076 157.95 295.456 161.58 294.536C162.61 294.276 164.21 296.306 165.55 297.286C164.21 298.826 162.86 300.366 161.04 302.456Z" fill="black"/>
<path d="M144.06 111.326C150.04 116.886 151.79 127.916 147.25 133.686C146.12 135.126 143.76 136.566 142.1 136.436C136.95 136.026 131.86 134.866 125.7 133.816C131.8 131.076 138.01 130.106 140.84 126.496C143.66 122.906 143.1 116.646 144.06 111.326Z" fill="white"/>
<circle cx="266.125" cy="185.353" r="2.625" fill="#131313"/>
</svg>
