<svg width="134" height="185" viewBox="0 0 134 185" fill="none" xmlns="http://www.w3.org/2000/svg">
<path d="M37.2679 184.519L66.863 165.881L96.4581 184.519V83.6769H66.863H37.2679V184.519Z" fill="#A1E18B"/>
<path d="M67 0L74.4064 8.37197L83.6622 2.10493L88.754 12.0558L99.2775 8.28745L101.735 19.1919L112.865 18.1591L112.533 29.3321L123.57 31.0996L120.47 41.839L130.721 46.2959L125.047 55.9269L133.868 62.793L125.977 70.7105L132.813 79.5546L123.202 85.261L127.623 95.5272L116.895 98.6642L118.624 109.707L107.453 110.078L106.382 121.204L95.4688 118.784L91.6643 129.295L81.6961 124.237L75.3973 133.472L67 126.094L58.6027 133.472L52.3039 124.237L42.3357 129.295L38.5312 118.784L27.6184 121.204L26.5474 110.078L15.3756 109.707L17.1053 98.6642L6.37659 95.5272L10.7983 85.261L1.18675 79.5546L8.02261 70.7105L0.13221 62.793L8.95272 55.9269L3.27921 46.2959L13.5301 41.839L10.43 31.0996L21.4673 29.3321L21.1353 18.1591L32.2654 19.1919L34.7225 8.28745L45.246 12.0558L50.3378 2.10493L59.5936 8.37197L67 0Z" fill="#FEC941"/>
<path d="M32.6676 44.7029C32.7448 44.6732 32.7636 44.4125 32.9201 44.1844C33.0293 44.0478 33.2462 43.8972 33.3847 43.8683L33.3845 43.8837C33.754 43.7965 34.1664 43.9401 34.5155 44.2364C34.9099 44.5793 35.028 44.9338 35.2393 45.1975C35.375 45.3835 35.4494 45.5533 35.5245 45.6771C35.7797 46.1102 36.0507 46.4975 36.3681 46.8701C36.5643 47.1182 36.7601 47.3971 36.9409 47.645C36.9561 47.6606 36.9403 47.6911 37.016 47.7688C38.0899 46.6475 39.1186 45.4641 40.0867 44.2186C40.6309 43.6887 41.3484 43.9745 41.4709 43.9915L41.4556 43.9912C41.9763 44.0749 42.1984 44.6764 41.9624 45.1183C41.7727 45.5302 41.5067 45.9103 41.2262 46.2289L41.2264 46.2135C40.9769 46.5171 40.7131 46.7285 40.5409 46.9871C40.322 47.2911 40.0883 47.5489 39.87 47.8069C39.4336 48.3075 39.0277 48.8239 38.6065 49.3401L38.6067 49.3247C38.4661 49.507 38.3409 49.6895 38.2157 49.872C38.1059 50.0547 38.0584 50.1615 38.0555 50.3763L38.0553 50.3917C38.0328 50.9285 37.8892 51.341 38.0073 51.6955C38.0363 51.8187 38.0341 51.9875 38.0171 52.11L38.0173 52.0947C37.8851 52.7989 38.0134 53.5372 37.9872 54.3503C37.9799 54.9027 37.6672 55.3282 37.2965 55.5074L37.2812 55.5072C36.8178 55.7313 35.9329 55.3358 35.9413 54.7067C35.9395 53.6937 35.9076 52.6344 35.9828 51.5918C36.0565 50.672 36.0025 50.1187 35.5644 49.5911C35.2019 49.1566 34.8248 48.6604 34.5405 48.1195C34.4506 47.9495 34.3608 47.7795 34.2551 47.6553C33.6501 46.9873 33.2777 46.1383 32.9048 45.3352L32.6676 44.7029ZM54.4281 50.5638C54.3614 50.962 54.34 51.4221 54.2107 51.9115L54.2105 51.9268C54.0658 52.416 53.7833 52.888 53.4711 53.2828C52.925 53.9508 52.2877 54.5562 51.6361 55.0847C51.4344 55.2508 51.1555 55.4466 50.8474 55.5346L50.8321 55.5344C50.3546 55.6661 49.831 55.7973 49.3083 55.867C48.8471 55.9223 48.3113 55.8231 47.9007 55.5413C47.5355 55.3063 47.015 55.2072 46.5289 54.8324C45.6173 54.145 44.9082 53.2301 44.7866 51.9854C44.6937 50.8945 44.724 49.7746 44.9685 48.7035C44.9845 48.6577 44.9859 48.5503 45.034 48.3975C45.1841 47.494 45.4251 46.6838 46.0788 46.0019L47.7388 44.6582C47.9864 44.508 48.3104 44.3742 48.7577 44.2113C49.4212 43.9439 50.0812 43.9374 50.7209 44.2989L50.7361 44.3144C51.1319 44.5499 51.6052 44.7404 52.0616 45.0381C52.99 45.6183 53.7767 46.4729 54.0218 47.6578C54.1505 48.3655 54.2634 49.1037 54.3614 49.8109C54.404 50.0724 54.4007 50.3179 54.4281 50.5638ZM46.837 50.1404C46.8301 50.6621 46.811 50.9381 46.8227 51.2145C46.8569 52.105 47.2933 52.7554 48.0233 53.2563C48.5098 53.6004 48.6763 53.7714 49.3969 53.8271C49.9493 53.8344 50.489 53.6421 50.8476 53.2172L50.8632 53.202C51.1124 52.9291 51.3775 52.6104 51.6578 52.3072C52.094 51.8219 52.2384 51.348 52.2478 50.6422C52.2507 50.4274 52.2533 50.2279 52.2406 50.0282C52.1897 49.2449 52.0755 48.5988 51.8554 47.8438C51.7089 47.3201 51.6215 46.9659 51.2719 46.7157C50.831 46.4029 50.4343 46.2288 49.8997 46.0375C49.6861 45.9426 49.1157 46.1345 48.8223 46.2687L48.8221 46.284C48.112 46.5969 47.8949 46.7628 47.5181 47.4023C47.2664 47.8594 47.0917 48.3021 47.0083 48.8075C46.9094 49.3126 46.8718 49.8339 46.837 50.1404ZM65.2311 44.3849C65.1541 44.3992 65.0465 44.4131 64.9385 44.4577C64.6607 44.5768 64.3804 44.88 64.3755 45.2482C64.3493 46.0613 64.3231 46.8743 64.3119 47.7182C64.258 48.3007 64.1265 48.9589 64.1637 49.6193C64.2018 50.2183 63.9021 50.8282 63.8155 51.5637C63.4667 52.4032 63.0577 53.1497 62.4657 53.8171C62.2318 54.0902 61.8316 54.177 61.4804 54.0495L61.4955 54.0651C60.5793 53.7152 60.066 53.0791 59.9101 52.1102C59.8966 51.9719 59.8833 51.8183 59.8852 51.6802C59.853 50.6361 59.6511 49.6666 59.6644 48.6692C59.6877 48.071 59.6652 47.4568 59.5965 46.8574C59.5429 46.2735 59.4735 45.72 59.5117 45.1527L59.5115 45.1681C59.5478 44.7542 59.1836 44.4424 58.9702 44.3321C58.2685 44.0158 57.3861 44.5872 57.4067 45.3395C57.4301 45.8923 57.4536 46.4298 57.4616 46.9824C57.4695 47.535 57.4779 48.0569 57.425 48.578C57.3701 49.2372 57.5005 49.8221 57.4933 50.3591C57.4837 51.0803 57.6128 51.7573 57.6658 52.3872L57.6656 52.4026C57.8151 53.8472 58.7374 54.8877 59.833 55.5929C60.8981 56.2824 62.6938 56.2756 63.8113 55.339C64.4635 54.7645 65.0102 54.0505 65.404 53.2884C65.9553 52.2215 66.1243 51.0574 66.3381 49.9859C66.2688 49.4325 66.3993 48.8511 66.4232 48.2068C66.4504 47.317 66.5237 46.4279 66.5818 45.5232C66.638 44.7566 65.9704 44.1799 65.2311 44.3849ZM71.1484 44.7093C71.575 44.9452 71.9997 45.3192 72.2538 45.829C72.4637 46.2001 72.4569 46.7065 72.2372 47.0719L72.2217 47.087C71.8927 47.5891 71.4878 48.0287 71.0076 48.36C70.8679 48.4809 70.6367 48.5545 70.4677 48.5676C70.1909 48.61 69.9018 48.422 69.7807 48.2976C69.5538 48.049 69.5438 47.6499 69.8386 47.4082C70.0569 47.1502 70.2441 46.9225 70.416 46.6946C70.526 46.4966 70.526 46.4966 70.4352 46.4033C70.2232 46.1856 69.9659 45.9213 69.8012 45.6121C69.5307 45.1788 69.7981 44.6913 70.2451 44.5438L71.1484 44.7093ZM85.1653 45.3105C85.1089 44.9414 84.7604 44.5991 84.4075 44.5944C83.9628 44.5731 83.298 44.9326 83.1544 45.345C83.0274 45.6656 82.9773 45.9719 82.8666 46.216C82.3455 47.314 81.9768 48.4908 81.6853 49.638C81.6523 49.8063 81.5889 49.959 81.5098 50.1421L80.2751 52.9648L80.1967 53.0865C79.5725 51.5589 79.0876 49.941 78.4947 48.3677L78.4949 48.3523C78.391 48.0901 78.3018 47.874 78.2435 47.643C78.0861 46.7815 77.7125 46.0245 77.5079 45.2544C77.4644 45.0697 77.3735 44.9764 77.3887 44.992C77.1949 44.5597 76.6456 44.3221 76.1986 44.4696C75.9829 44.5282 75.797 44.6638 75.6576 44.754C75.3939 44.9654 75.2493 45.4545 75.3984 45.7788C75.5324 46.0875 75.7133 46.3355 75.7565 46.5509C75.9594 47.4438 76.3168 48.2619 76.5517 49.0631C76.902 50.4183 77.4219 51.7144 77.819 53.0088C78.0536 53.8253 78.4422 54.6132 78.7392 55.3538C78.9027 55.755 79.2043 56.1581 79.7536 56.3956C80.1083 56.2622 80.325 56.127 80.5562 56.0533C80.8641 55.9807 81.1743 55.7392 81.3314 55.4651C81.4572 55.2366 81.5679 54.9925 81.6628 54.7789C81.7741 54.4888 81.8236 54.2286 81.9183 54.0303C82.7842 52.3997 83.4214 50.6433 83.9208 48.8697C84.0984 48.2122 84.3677 47.5865 84.6827 46.9768C84.7928 46.7788 84.9031 46.5654 85.0285 46.3676C85.2173 46.0171 85.2226 45.6182 85.1653 45.3105ZM96.7337 55.0718C96.6013 54.6404 96.1156 54.2349 95.6547 54.2748L95.6393 54.2746C95.2089 54.3302 94.6727 54.2617 94.1182 54.4078C93.6127 54.3396 93.0922 54.2406 92.5558 54.1874L92.5711 54.1876C92.2646 54.1529 91.9418 54.1946 91.7116 54.1915L91.6963 54.1913C91.2511 54.2007 90.821 54.2257 90.4068 54.2202C90.3454 54.2194 90.2697 54.1416 90.2705 54.0802C90.2969 53.2518 90.3077 52.4386 90.3341 51.6102C91.3622 51.6239 92.3902 51.6376 93.4185 51.636C93.5873 51.6382 93.8023 51.6257 93.9873 51.5668C94.1722 51.5079 94.3439 51.2953 94.3909 51.2192C94.7862 50.3497 94.1352 49.6811 93.4138 49.6869C93.1069 49.6828 92.7849 49.6631 92.4158 49.7196C91.8315 49.8039 91.2335 49.7652 90.6201 49.7264C90.4669 49.709 90.375 49.6924 90.2987 49.6607C90.1884 48.723 90.1545 47.8171 90.2746 46.8672C90.3089 46.5914 90.3091 46.5761 90.5698 46.5949L90.5851 46.5951C90.7999 46.598 90.9536 46.5847 91.0759 46.617C91.9477 46.8435 92.8538 46.7942 93.6838 46.6978C94.3449 46.6145 94.959 46.592 95.5867 46.7078C95.7093 46.7248 95.8779 46.7424 96.0315 46.7291C96.1852 46.7158 96.3392 46.6718 96.4624 46.6427C97.0946 46.421 97.3188 45.718 96.9421 45.1912C96.6854 44.8808 96.5464 44.9404 96.6694 44.9266C96.2124 44.675 95.6282 44.744 95.2291 44.754C94.6456 44.7769 93.218 44.8039 92.4968 44.7943C92.0672 44.7886 91.4679 44.842 91.0853 44.7601C90.5953 44.6769 90.0732 44.7006 89.5973 44.7096L89.582 44.7094C89.3056 44.7211 89.0433 44.825 88.8277 44.8835C88.4737 44.9555 88.1918 45.3815 88.1268 45.6569C88.0903 46.0861 88.1329 46.3476 88.1253 46.9153C88.1225 47.1301 88.1049 47.2987 88.1041 47.3601L88.1039 47.3754C88.1133 47.8206 88.1231 48.2351 88.1174 48.6648C88.0908 49.5085 88.0175 50.3976 88.067 51.2884C88.1059 51.8261 88.1143 52.348 88.0765 52.8846L88.0131 54.1883L88.0128 54.2036C88.0084 54.5412 88.0347 54.8638 88.0462 55.1556C88.0706 55.6317 88.419 55.9739 88.724 56.1161C88.8918 56.1951 89.1674 56.2448 89.367 56.2321C89.6895 56.2211 89.9516 56.1325 90.1664 56.1353C91.3021 56.1351 92.4222 56.1501 93.5722 56.2268C94.2469 56.2665 94.9376 56.2603 95.5976 56.2538L95.5823 56.2536C95.8738 56.2574 96.1367 56.1075 96.3063 56.0484C96.6768 55.8845 96.8362 55.4415 96.7335 55.0872L96.7337 55.0718ZM47.1179 65.2374C46.9804 65.1895 46.7664 65.1253 46.567 65.1226C45.9839 65.1149 45.4767 65.1695 44.9712 65.1014C44.1129 65.0132 43.2817 65.2016 42.577 65.1001L42.5617 65.0999C41.9792 65.0461 41.5171 65.1781 41.15 65.0811L41.1347 65.0809C40.8135 64.9999 40.4448 65.0257 40.1367 65.1137C39.7361 65.2311 39.331 65.6861 39.356 66.1162C39.3934 66.7612 39.23 67.511 39.3425 68.2799C39.2179 69.5674 39.3396 70.7968 39.2468 72.0079C39.1713 73.0659 39.3734 74.0201 39.3607 74.9714C39.3403 75.3548 39.4585 75.694 39.5013 75.9401L39.5164 75.9557C39.6474 76.4946 40.2118 76.7477 40.736 76.5705L40.9674 76.4815C41.3991 76.3338 41.6182 76.0144 41.6082 75.6152C41.5975 75.2621 41.5709 74.9548 41.6211 74.6486C41.6728 74.2195 41.5243 73.8492 41.5126 73.5728C41.5007 73.3118 41.5349 73.0513 41.5697 72.7449C41.6931 72.7005 41.7857 72.6557 41.8931 72.6571C42.1237 72.6295 42.3692 72.6327 42.6454 72.6364C43.213 72.6593 43.7535 72.4056 44.1866 72.1505C44.3566 72.0607 44.4837 71.7401 44.4855 71.602L44.4712 71.5251C44.3558 70.971 43.9006 70.5813 43.3472 70.6507L43.3625 70.6509C43.0552 70.6775 42.7935 70.7354 42.5476 70.7628C42.1941 70.8041 41.8408 70.8301 41.4876 70.8407L41.4741 70.7024C41.4541 69.9041 41.4962 69.0453 41.3694 68.1995L41.3845 68.215C41.3428 67.8922 41.4402 67.4945 41.5073 67.0656C41.6456 67.0521 41.7227 67.0225 41.7994 67.0235L44.071 67.0077C44.5004 67.0288 45.0986 67.0521 45.6811 67.1059C46.0489 67.1415 46.4788 67.1319 46.8638 67.0296C47.2489 66.9273 47.4991 66.5777 47.6108 66.2569L47.611 66.2415C47.7239 65.8287 47.5604 65.4275 47.1179 65.2374ZM58.0143 71.6135C57.9476 72.0116 57.9261 72.4717 57.7968 72.9611L57.7966 72.9765C57.652 73.4656 57.3694 73.9376 57.0572 74.3325C56.5112 75.0005 55.8739 75.6059 55.2223 76.1343C55.0206 76.3005 54.7417 76.4963 54.4336 76.5842L54.4182 76.584C53.9407 76.7158 53.4172 76.8469 52.8945 76.9167C52.4333 76.9719 51.8975 76.8727 51.4869 76.591C51.1217 76.3559 50.6012 76.2569 50.1151 75.8821C49.2034 75.1947 48.4943 74.2798 48.3728 73.035C48.2799 71.9442 48.3102 70.8242 48.5547 69.7532C48.5706 69.7074 48.5721 69.6 48.6201 69.4471C48.7703 68.5437 49.0113 67.7335 49.665 67.0516L51.325 65.7078C51.5725 65.5577 51.8966 65.4239 52.3438 65.261C53.0073 64.9936 53.6673 64.9871 54.3071 65.3486L54.3222 65.3641C54.7181 65.5996 55.1913 65.7901 55.6478 66.0877C56.5762 66.6679 57.3629 67.5225 57.608 68.7075C57.7367 69.4152 57.8496 70.1533 57.9476 70.8606C57.9902 71.1221 57.9869 71.3676 58.0143 71.6135ZM50.4232 71.19C50.4162 71.7117 50.3972 71.9877 50.4089 72.2641C50.443 73.1547 50.8794 73.8051 51.6094 74.3059C52.0959 74.65 52.2625 74.8211 52.983 74.8767C53.5354 74.8841 54.0751 74.6918 54.4338 74.2668L54.4493 74.2517C54.6985 73.9788 54.9637 73.66 55.244 73.3568C55.6801 72.8715 55.8246 72.3977 55.834 71.6919C55.8368 71.477 55.8395 71.2776 55.8268 71.0779C55.7759 70.2945 55.6617 69.6484 55.4416 68.8935C55.2951 68.3697 55.2077 68.0156 54.8581 67.7654C54.4172 67.4526 54.0205 67.2785 53.4859 67.0872C53.2723 66.9922 52.7019 67.1842 52.4085 67.3184L52.4083 67.3337C51.6982 67.6465 51.4811 67.8125 51.1043 68.452C50.8526 68.9091 50.6779 69.3518 50.5944 69.8571C50.4956 70.3623 50.458 70.8836 50.4232 71.19ZM68.8172 65.4345C68.7403 65.4488 68.6327 65.4628 68.5247 65.5074C68.2468 65.6264 67.9665 65.9296 67.9616 66.2979C67.9354 67.1109 67.9093 67.924 67.898 68.7679C67.8442 69.3504 67.7127 70.0085 67.7499 70.669C67.788 71.268 67.4882 71.8779 67.4017 72.6134C67.0529 73.4528 66.6439 74.1994 66.0518 74.8667C65.818 75.1399 65.4178 75.2266 65.0665 75.0992L65.0817 75.1147C64.1655 74.7649 63.6522 74.1288 63.4963 73.1599C63.4828 73.0216 63.4695 72.8679 63.4713 72.7298C63.4392 71.6858 63.2373 70.7162 63.2506 69.7189C63.2739 69.1206 63.2514 68.5065 63.1826 67.907C63.129 67.3231 63.0597 66.7697 63.0979 66.2024L63.0977 66.2177C63.1339 65.8038 62.7698 65.492 62.5564 65.3818C61.8546 65.0655 60.9722 65.6369 60.9929 66.3892C61.0162 66.942 61.0397 67.4794 61.0477 68.032C61.0557 68.5846 61.0641 69.1065 61.0111 69.6276C60.9563 70.2868 61.0866 70.8717 61.0795 71.4088C61.0698 72.13 61.1989 72.807 61.2519 73.4369L61.2517 73.4522C61.4013 74.8968 62.3236 75.9374 63.4192 76.6426C64.4843 77.3321 66.28 77.3253 67.3974 76.3887C68.0497 75.8142 68.5963 75.1002 68.9901 74.3381C69.5415 73.2711 69.7105 72.107 69.9243 71.0356C69.8549 70.4822 69.9855 69.9007 70.0094 69.2565C70.0366 68.3667 70.1098 67.4775 70.1679 66.5729C70.2242 65.8063 69.5566 65.2295 68.8172 65.4345ZM82.4961 69.515C82.5084 68.5943 82.6131 67.6442 82.5955 66.6618L82.5953 66.6771C82.6006 66.2781 82.1941 65.6895 81.7962 65.6075L81.8115 65.6077C81.0928 65.414 80.5011 66.0507 80.5075 66.726C80.5009 67.217 80.4792 67.6925 80.503 68.2146L80.5032 68.1993C80.5218 69.105 80.6176 69.981 80.6057 70.871C80.5809 71.5766 80.5257 72.2665 80.4549 72.9715L80.4547 72.9869L80.4161 73.5849C80.2649 73.414 80.0676 73.2426 79.8868 72.9946C79.1633 72.0028 78.3937 71.0257 77.732 70.004C76.8897 68.7189 76.1249 67.3736 75.3293 66.0431C75.1194 65.672 74.5572 65.2501 73.9993 65.6571C73.6118 65.9435 73.4526 66.3711 73.4012 66.7694C73.3474 67.3519 73.2936 67.9344 73.2857 68.5328L73.2859 68.5174C73.2644 68.9776 73.1965 69.4678 73.1897 69.9741C73.174 71.1556 73.281 72.3388 73.2043 73.4888C73.1464 74.3781 73.1503 75.2376 73.1846 76.1128C73.2055 76.8498 73.8009 77.0879 74.3242 76.9721C74.5243 76.9287 75.5061 76.9572 75.3971 75.9275L75.3973 75.9121C75.341 75.5277 75.3003 75.1281 75.2901 74.7443C75.2731 73.7158 75.3179 72.6575 75.2708 71.5826C75.233 70.9682 75.1796 70.369 75.157 69.7548L75.2323 69.8632C75.3979 70.111 75.6518 70.6362 75.8471 70.9457L75.8625 70.9459C76.0732 71.2556 76.2839 71.5654 76.4793 71.8749C77.4125 73.2533 78.3452 74.6623 79.3405 75.98C79.5212 76.2433 79.7419 76.9522 80.3379 77.1443C80.7047 77.2567 81.3813 77.1582 81.6921 76.8708L81.6765 76.8859C82.3128 76.3573 82.1876 75.3887 82.2404 74.883L82.2402 74.8983C82.3437 74.0403 82.4476 73.1515 82.5053 72.2775C82.5638 71.3422 82.4687 70.4201 82.4961 69.515ZM96.2009 71.3244C96.3018 70.6658 95.9429 69.9551 95.9628 69.6177C95.6639 69.0152 95.4451 68.1528 94.716 67.5906C94.671 67.5133 94.5957 67.4049 94.4897 67.296C93.9324 66.5059 93.0148 66.2635 92.3599 65.8864L92.0377 65.8821C91.1784 65.8707 90.306 65.6902 89.3207 65.9226C89.2129 65.9519 89.1822 65.9515 89.0599 65.9192C88.4322 65.8034 87.8659 65.6884 87.2996 65.5734C86.8871 65.4298 86.4094 65.5769 86.0993 65.8183C85.8828 65.9382 85.803 66.1674 85.7713 66.2437C85.6619 66.3957 85.6592 66.5952 85.6584 66.6565C85.6529 67.0708 85.6469 67.5158 85.6878 67.9C85.785 68.6687 85.776 69.3438 85.7196 70.1258C85.7089 70.9237 85.7445 71.7068 85.7335 72.5354C85.7286 72.9037 85.7231 73.318 85.6717 73.7163C85.6623 74.4221 85.5917 75.1118 85.5817 75.8637C85.5731 76.5081 86.0275 76.9593 86.5316 77.1348C86.9144 77.2013 87.2673 77.206 87.6202 77.2107C88.036 77.1088 88.4202 77.0679 88.7885 77.0728C89.4796 77.036 90.1254 76.9371 90.756 76.8381C91.4021 76.724 92.1562 76.5652 92.7745 76.2358C93.0687 76.0402 93.4396 75.8456 93.8263 75.6206C94.3216 75.3049 94.7561 74.9424 95.1004 74.4405L95.1002 74.4559C95.8028 73.5597 96.3378 72.5693 96.2009 71.3244ZM93.7921 72.428C93.7608 72.4736 93.6824 72.5953 93.6493 72.779C93.2047 73.8934 92.3368 74.5265 91.1517 74.7869C90.1662 75.0347 89.1823 75.1597 88.1855 75.1004C88.0167 75.0981 88.1395 75.0997 87.9711 75.0668C88.0419 74.3618 88.0059 73.6093 88.0157 72.8728C88.0255 72.1363 87.9731 71.4603 87.9369 70.7232C87.9408 70.4316 87.8821 70.2313 87.8847 70.0318C87.9527 69.5416 87.9596 69.0199 87.8438 68.4966C87.8289 68.4657 87.8608 68.3741 87.8639 68.1439C87.8714 67.5762 87.8231 67.7443 88.2068 67.7494C88.621 67.755 89.6792 67.8151 89.9861 67.8192C90.3697 67.8243 90.7079 67.7828 91.0295 67.8331C91.7494 67.9348 92.3444 68.2036 92.8739 68.7785C93.3577 69.3221 93.7178 69.9408 93.8927 70.6337C94.1151 71.2199 94.1069 71.8336 93.7923 72.4126L93.7921 72.428ZM56.4012 93.883C56.4935 92.7179 56.2813 91.3645 56.1621 89.951C56.0812 89.1058 56.062 88.2461 56.1348 87.3877L56.1346 87.403C56.1569 86.8815 56.5769 86.4574 57.0242 86.2946C57.6103 86.0722 58.2802 86.4801 58.3489 87.0796L58.3491 87.0642C58.3485 87.1103 58.423 87.2801 58.3434 87.4939C58.1658 88.1514 58.2339 88.7969 58.3776 89.5355L58.3774 89.5508C58.4477 90.0275 58.4109 90.4874 58.4518 90.8716C58.6024 92.2395 58.6873 93.9288 58.6691 95.2945C58.6675 95.4172 58.6816 95.5095 58.726 95.6328C58.9924 96.3731 58.6614 97.0286 58.3173 97.5151C58.1139 97.804 57.7604 97.8453 57.5762 97.8428C57.1157 97.852 56.7965 97.6176 56.6787 97.2477C56.4115 96.5689 56.2679 95.8303 56.3855 95.0645L56.3853 95.0799C56.4186 94.8808 56.3955 94.3126 56.4012 93.883ZM73.0907 87.3528C73.1928 87.7532 73.0488 88.1963 72.7382 88.4684C72.6138 88.5895 72.3509 88.7395 72.1523 88.6755C71.587 88.4838 70.8948 88.5973 70.145 88.4338C69.7469 88.3671 69.3784 88.3776 68.826 88.3702L68.7178 88.4302C68.6978 88.7829 68.6931 89.1358 68.6847 89.7649C68.5636 90.7915 68.8091 91.9458 68.8527 93.2816C68.8774 93.727 68.9042 94.0189 68.8829 94.4637C68.8789 94.7706 68.8617 94.9085 68.8584 95.154C68.8656 95.768 68.7972 96.2889 68.9754 96.7363C69.1684 97.23 68.6994 97.8683 68.208 97.8925L67.6548 97.9465C66.9473 98.0598 66.5208 97.8239 66.4852 97.0408C66.4725 96.8411 66.46 96.626 66.4782 96.4114C66.5066 95.4296 66.5656 94.4635 66.5938 93.4971C66.5983 93.1595 66.5721 92.8215 66.577 92.4532C66.568 91.9774 66.5567 91.6703 66.5635 91.1639C66.5844 90.7498 66.6502 90.4131 66.5776 90.1052C66.5046 89.8279 66.5694 89.5679 66.5715 89.4145C66.5905 89.1385 66.6093 88.8778 66.5972 88.6321C66.6017 88.2945 66.6165 88.3408 66.3865 88.3224C65.9726 88.2862 65.5583 88.2806 65.1135 88.2594C64.8987 88.2565 64.8062 88.286 64.5454 88.2825C64.3306 88.2796 64.0699 88.2608 63.8561 88.1812C63.3976 88.037 63.0314 87.8786 62.6327 87.858C62.2798 87.8533 62.0846 87.5284 62.0887 87.2215C62.0911 87.0374 62.2331 86.7477 62.4037 86.6118C62.6053 86.461 62.9453 86.2814 63.3287 86.3018C63.7119 86.3376 64.0949 86.3888 64.4783 86.4093C65.5514 86.5003 66.5937 86.5909 67.6552 86.4056C67.9166 86.363 68.1928 86.3667 68.423 86.3697C69.0367 86.3779 69.697 86.356 70.3253 86.4258C70.9536 86.4956 71.551 86.5803 72.1795 86.6347C72.5013 86.6697 72.9747 86.8448 73.0907 87.3528ZM76.6548 94.7668C76.023 93.8069 76.113 92.8105 76.0013 91.9803L76.0011 91.9957C75.917 91.396 75.8796 90.7509 75.934 90.1224L75.9338 90.1378C75.9909 89.3098 75.9559 88.4806 76.0133 87.6219C76.0215 87.0082 76.4409 86.6301 77.0103 86.5149C77.1484 86.5167 77.3327 86.5038 77.5156 86.5984C77.8219 86.6485 78.048 86.9584 78.0754 87.2044C78.1184 87.4351 78.1157 87.6346 78.1133 87.8187C78.0568 88.6007 78.0472 89.3219 78.0834 90.059C78.1757 91.1959 78.2068 92.3166 78.4382 93.3787C78.4803 93.6708 78.4766 93.947 78.474 94.1465C78.4689 94.5301 78.1734 94.8178 77.7898 94.8126C77.3909 94.8073 76.9138 94.9084 76.6548 94.7668ZM76.8745 96.7035C77.3559 96.2802 78.169 96.3063 78.7123 96.9889C78.9834 97.3761 78.8991 97.9429 78.4513 98.1517C78.2195 98.2714 77.9273 98.3136 77.7426 98.3572C77.3576 98.4595 76.9009 98.1771 76.8117 97.9611C76.8121 97.9304 76.7211 97.8524 76.6313 97.6824C76.5108 97.512 76.5799 96.9297 76.8745 96.7035Z" fill="#5E391F"/>
</svg>
