<svg width="183" height="59" viewBox="0 0 183 59" fill="none" xmlns="http://www.w3.org/2000/svg">
<path d="M36.9875 6.77088C37.0613 7.16797 36.8922 7.5909 36.5718 7.83627C36.4427 7.94639 36.1766 8.0757 35.9869 8.00043C35.4479 7.77701 34.7656 7.84313 34.0448 7.63534C33.6607 7.54462 33.3007 7.53103 32.7624 7.48823L32.653 7.53972C32.6107 7.88245 32.5833 8.22636 32.5346 8.83943C32.3502 9.83294 32.5153 10.9746 32.4716 12.2803C32.4671 12.7163 32.4744 13.0028 32.4249 13.4352C32.4012 13.7343 32.3755 13.8676 32.3565 14.1069C32.3239 14.7062 32.2236 15.2098 32.3686 15.6577C32.5249 16.1517 32.0264 16.744 31.5456 16.7359L31.0025 16.7529C30.3052 16.8178 29.9043 16.5602 29.9201 15.7941C29.9206 15.5985 29.9223 15.388 29.9539 15.1798C30.0449 14.224 30.1647 13.2856 30.2546 12.3447C30.2807 12.0158 30.277 11.6844 30.3055 11.3256C30.3274 10.8608 30.3362 10.5606 30.3755 10.0671C30.4225 9.66461 30.5085 9.34041 30.4575 9.03541C30.4041 8.76031 30.4842 8.51087 30.4961 8.36134C30.5324 8.09338 30.5676 7.84037 30.5716 7.59994C30.5978 7.27097 30.6092 7.31702 30.3861 7.28423C29.9847 7.22223 29.581 7.19013 29.1486 7.14069C28.9392 7.12405 28.8471 7.14682 28.5929 7.12661C28.3836 7.10996 28.1306 7.0748 27.9272 6.98339C27.4893 6.81314 27.1423 6.63508 26.7547 6.58921C26.4108 6.56187 26.2414 6.2324 26.2652 5.93335C26.2795 5.75391 26.4366 5.48051 26.6118 5.35901C26.8181 5.22494 27.1613 5.07166 27.5339 5.11634C27.9054 5.17597 28.2756 5.25055 28.6483 5.29523C29.689 5.45322 30.6999 5.60884 31.7471 5.49649C32.0048 5.47184 32.274 5.49324 32.4983 5.51108C33.0964 5.55863 33.7417 5.57985 34.35 5.68841C34.9584 5.79697 35.5356 5.91811 36.1451 6.01171C36.4567 6.06658 36.9072 6.26792 36.9875 6.77088ZM48.8535 7.92505C48.8665 7.76057 48.8903 7.46151 48.8082 7.16909C48.7957 7.13799 48.5731 6.90963 48.4307 6.80802C47.9066 6.58579 47.1478 6.85649 46.9519 7.42776C46.8163 7.80821 46.6784 8.21857 46.605 8.57387C46.4905 9.25694 46.379 10.0907 46.237 10.7415C46.2275 10.8611 46.2227 10.921 46.2066 10.9347L46.1719 10.9921C45.8968 11.0455 45.8012 11.1131 45.7138 11.0761C45.5745 11.1252 45.2515 11.0243 44.9004 11.0867C43.989 11.1948 43.0816 11.0624 42.1206 11.2268L41.8365 11.2042C41.6295 11.1576 41.5745 11.0931 41.5702 10.9573C41.5372 10.8042 41.5539 10.5949 41.5705 10.3855C41.5982 9.46983 41.6401 8.37471 41.8024 7.46972L41.8297 7.1258C41.8594 6.75198 41.5429 6.38072 41.1242 6.34743C40.8999 6.3296 40.6398 6.38415 40.4024 6.5308C40.1387 6.63021 39.9343 6.92995 39.9164 7.15424L39.5529 9.83386C39.4911 10.6114 39.5434 11.2776 39.3853 11.9422C39.3662 12.1814 39.398 12.3495 39.3921 12.4243C39.4207 13.3896 39.3974 14.8172 39.2741 15.8005C39.1917 16.0799 39.2474 16.3251 39.2218 16.4585C39.3424 17.401 39.9802 17.7075 40.8484 17.3853C41.0499 17.311 41.2622 17.1022 41.3339 16.9574C41.3804 16.7505 41.5447 16.3874 41.5134 16.0237C41.4701 15.4334 41.6029 14.3305 41.547 13.7091C41.5767 13.3353 41.4211 13.022 42.3911 12.9336C42.4647 12.9545 42.6119 12.9963 42.7913 13.0105C43.0006 13.0272 43.2847 13.0498 43.5736 13.0126C44.0514 12.87 44.5748 12.9116 45.1095 12.9993C45.6777 13.0444 45.8451 12.832 45.9988 12.9797C46.1377 13.1261 45.9141 13.2889 45.9251 13.9068C45.9739 14.6179 45.9296 15.7429 45.8241 16.5019C45.8098 16.6813 45.8464 16.7896 45.8404 16.8643C45.8095 17.2531 46.0836 17.5909 46.2625 17.8008C46.4151 17.9634 46.7142 17.9871 46.8039 17.9943C47.0132 18.0109 47.2978 17.8379 47.2656 17.8655C47.7075 17.7953 47.9065 17.3747 47.9865 17.1253C48.015 16.7664 48.084 15.8991 48.0551 15.5056C48.0729 15.2813 48.0423 15.0983 48.053 14.9638C48.1443 14.3842 48.0997 13.8088 48.1402 13.3004C48.1675 12.9565 48.15 12.609 48.175 12.295C48.3372 11.39 48.3141 10.5455 48.5608 9.90307C48.6639 9.17395 48.8095 8.4783 48.8535 7.92505ZM59.6492 17.7968C59.5479 17.3674 59.1004 16.9406 58.6482 16.9498L58.6333 16.9486C58.2098 16.9751 57.6912 16.8737 57.141 16.9804C56.6523 16.8814 56.1511 16.7513 55.6313 16.6648L55.6463 16.666C55.3496 16.6123 55.032 16.6322 54.8077 16.6143L54.7928 16.6132C54.3579 16.5936 53.9369 16.5902 53.5332 16.5581C53.4733 16.5534 53.4045 16.4727 53.4093 16.4129C53.4884 15.6066 53.5515 14.8141 53.6306 14.0078C54.6324 14.0875 55.6343 14.1672 56.6373 14.2319C56.8018 14.245 57.0123 14.2466 57.1965 14.2011C57.3807 14.1556 57.5618 13.9593 57.6126 13.8881C58.0542 13.0655 57.4624 12.3714 56.7584 12.3305C56.4593 12.3067 56.1465 12.2668 55.7829 12.2981C55.2076 12.3426 54.6268 12.2663 54.0311 12.1889C53.8827 12.162 53.7942 12.1399 53.7218 12.1041C53.6747 11.1824 53.7 10.2967 53.8784 9.37792C53.9297 9.11114 53.9309 9.09619 54.1839 9.13135L54.1988 9.13254C54.4082 9.14919 54.5589 9.14613 54.6761 9.18554C55.5118 9.46265 56.3988 9.47299 57.2145 9.43252C57.8646 9.39393 58.4651 9.41159 59.0699 9.565C59.1883 9.58947 59.3516 9.6175 59.5023 9.61444C59.653 9.61137 59.8061 9.5784 59.9281 9.55801C60.559 9.38246 60.8231 8.71128 60.4897 8.17316C60.2593 7.85389 60.1199 7.903 60.2407 7.89756C59.8112 7.62265 59.237 7.65223 58.8471 7.63627C58.2765 7.621 56.8823 7.55528 56.1795 7.4994C55.7608 7.46611 55.1729 7.47955 54.805 7.37507C54.3325 7.26225 53.8217 7.25173 53.357 7.22983L53.342 7.22864C53.0717 7.22219 52.8092 7.30665 52.5951 7.34982C52.2452 7.39723 51.9428 7.79451 51.8616 8.05891C51.7984 8.47521 51.823 8.73297 51.779 9.28622C51.7624 9.49556 51.7344 9.65886 51.7296 9.71867L51.7284 9.73362C51.7089 10.1684 51.6917 10.5734 51.6585 10.992C51.5781 11.8132 51.4493 12.6758 51.4402 13.5478C51.4434 14.0747 51.418 14.5843 51.3464 15.1052L51.2005 16.3727L51.1993 16.3876C51.1732 16.7166 51.1781 17.033 51.1705 17.3183C51.1635 17.7842 51.4813 18.1405 51.7696 18.2988C51.9282 18.3867 52.1938 18.4529 52.3893 18.4534C52.7045 18.4635 52.9659 18.394 53.1752 18.4106C54.2829 18.4836 55.3744 18.5704 56.4912 18.7194C57.1467 18.8016 57.8208 18.8402 58.4649 18.8763L58.45 18.8752C58.7341 18.8977 59.0002 18.7684 59.1694 18.7217C59.5413 18.5858 59.7254 18.164 59.648 17.8118L59.6492 17.7968ZM63.3372 8.76072C63.4144 8.73676 63.4495 8.48375 63.6169 8.27135C63.7323 8.14509 63.9535 8.01221 64.0904 7.99301L64.0892 8.00796C64.4552 7.94678 64.8483 8.11345 65.1696 8.4249C65.5322 8.78478 65.6245 9.1382 65.8136 9.40905C65.9339 9.59918 65.9956 9.76961 66.0609 9.89517C66.2818 10.3341 66.5212 10.7293 66.8067 11.1131C66.982 11.3678 67.155 11.6524 67.3154 11.9059C67.3292 11.9221 67.3119 11.9508 67.3807 12.0315C68.5004 11.007 69.58 9.91919 70.6046 8.76678C71.1696 8.28504 71.8509 8.61008 71.9694 8.63454L71.9544 8.63335C72.4569 8.74854 72.6348 9.34953 72.376 9.76533C72.1645 10.1548 71.8806 10.5084 71.5864 10.801L71.5876 10.7861C71.3246 11.0661 71.0538 11.2552 70.8691 11.4963C70.636 11.7787 70.3915 12.0151 70.1619 12.2527C69.704 12.7128 69.2748 13.1903 68.8306 13.6666L68.8318 13.6516C68.683 13.8204 68.5491 13.9903 68.4152 14.1602C68.2963 14.3313 68.2431 14.4324 68.2264 14.6418L68.2253 14.6567C68.1687 15.1789 68.002 15.5719 68.0943 15.9253C68.1147 16.0473 68.1016 16.2118 68.0771 16.3302L68.0783 16.3153C67.904 16.9936 67.9815 17.722 67.9036 18.5133C67.8607 19.0517 67.5284 19.4465 67.1553 19.5974L67.1403 19.5963C66.6739 19.7849 65.8364 19.3421 65.8851 18.729C65.9486 17.741 65.9858 16.7057 66.1265 15.6936C66.2576 14.8012 66.2406 14.2581 65.8474 13.7153C65.5218 13.2681 65.186 12.7598 64.9436 12.2139C64.8669 12.0423 64.7903 11.8707 64.6951 11.7427C64.1481 11.0522 63.8397 10.2001 63.5277 9.39281L63.3372 8.76072ZM76.8189 9.33614C77.2197 9.59372 77.6099 9.98588 77.8249 10.4995C78.0057 10.875 77.9664 11.3685 77.7285 11.7107L77.7124 11.7245C77.3592 12.193 76.9359 12.5957 76.4462 12.8878C76.3021 12.9967 76.0719 13.0536 75.9062 13.0555C75.6335 13.079 75.3637 12.8769 75.2536 12.7478C75.0483 12.4907 75.0643 12.1008 75.3674 11.8841C75.5969 11.6466 75.7942 11.4365 75.9765 11.2253C76.0966 11.0392 76.0966 11.0392 76.0141 10.9424C75.8214 10.7164 75.5874 10.442 75.4467 10.1299C75.2108 9.68979 75.5031 9.23151 75.9486 9.11646L76.8189 9.33614ZM88.6701 19.984C88.4534 19.6809 88.2218 19.3766 87.989 19.0872C87.6701 18.7459 87.3972 18.3931 87.1416 18.0117C86.7807 17.4413 86.3863 16.9133 86.0069 16.3866L85.9931 16.3705L87.0748 15.8245C88.2222 15.2085 88.8611 14.1759 88.8114 12.908C88.8119 12.7124 88.7789 12.5593 88.7735 12.4385C88.7193 11.6066 88.2955 10.8807 87.6732 10.3798C87.4746 10.2286 87.2012 10.0714 86.8884 10.0315C86.1856 9.97559 85.4738 9.84376 84.6903 9.8567C84.0862 9.8839 83.5192 9.82377 82.9629 9.62906C82.6997 9.5329 82.4144 9.52526 82.1889 9.52238C81.7081 9.51424 81.1915 9.95468 81.1535 10.4332C81.1178 10.8818 81.0014 11.3992 81.092 11.9631C81.1304 12.237 81.0941 12.505 80.9967 12.7831C80.8146 13.3705 80.706 13.9789 80.7619 14.6002L80.7482 14.5841C80.7603 14.8108 80.7287 15.0189 80.6797 15.2558C80.5299 15.8157 80.5445 16.3886 80.5202 16.8833L80.5214 16.8683C80.4822 17.3618 80.4579 17.8564 80.4336 18.351L80.3195 19.7865C80.2945 20.1005 80.5285 20.3749 80.6996 20.4938C81.2141 20.8357 81.9121 20.9514 82.5424 20.5952C82.5529 20.0845 82.5461 19.6024 82.5393 19.1203C82.5426 18.6993 82.5149 18.2908 82.5148 17.9146C82.54 17.0288 81.8259 16.9269 83.6829 16.8488C83.9096 16.8368 84.0233 16.9211 84.1274 17.1249L84.1125 17.1238C84.2657 17.467 84.4926 17.8311 84.7541 18.1378L84.7403 18.1217C85.0821 18.5551 85.3813 18.9551 85.6297 19.4263L85.6447 19.4275C85.8416 19.7892 86.0709 20.1234 86.2989 20.4726C86.4892 20.7285 86.7094 20.9868 86.9195 21.184C87.087 21.3478 87.3986 21.4027 87.5631 21.4158C87.9369 21.4455 88.2389 21.2438 88.4475 21.0798C88.8003 20.8069 88.9544 20.3828 88.6701 19.984ZM84.746 15.0224C84.6988 15.0487 84.6689 15.0463 84.578 15.0541C84.3064 15.0627 84.0026 15.0987 83.7114 15.1658C83.419 15.2479 83.1522 15.1966 82.8142 15.0945L82.813 15.1094C82.7751 14.6399 82.7289 14.2751 82.8059 13.875L82.9299 13.0723C82.9746 12.6996 83.018 12.342 83.0765 11.9855C83.0998 11.882 83.2301 11.7569 83.3222 11.7342C83.5662 11.6934 83.8078 11.6825 84.0644 11.6728C84.5315 11.6648 85.0273 11.6741 85.5082 11.6823L85.4932 11.6811C85.9131 11.6994 86.2798 11.8189 86.4988 12.0921C86.8405 12.5255 86.943 12.94 86.7333 13.4951C86.636 13.7732 86.5021 13.9432 86.2588 14.1646C85.8379 14.5374 85.3093 14.7512 84.746 15.0224ZM100.361 21.034C100.259 20.6046 99.8117 20.1778 99.3596 20.1869L99.3446 20.1858C98.9212 20.2123 98.4026 20.1108 97.8524 20.2176C97.3637 20.1185 96.8624 19.9884 96.3427 19.9019L96.3576 19.9031C96.0609 19.8494 95.7434 19.8693 95.5191 19.8515L95.5041 19.8503C95.0693 19.8308 94.6482 19.8274 94.2445 19.7953C94.1847 19.7905 94.1159 19.7098 94.1206 19.65C94.1998 18.8437 94.2628 18.0512 94.342 17.245C95.3438 17.3246 96.3456 17.4043 97.3487 17.469C97.5131 17.4821 97.7237 17.4838 97.9079 17.4382C98.092 17.3927 98.2732 17.1964 98.324 17.1252C98.7656 16.3026 98.1737 15.6085 97.4698 15.5676C97.1707 15.5438 96.8579 15.5039 96.4943 15.5352C95.9189 15.5797 95.3381 15.5035 94.7424 15.426C94.5941 15.3991 94.5055 15.3771 94.4331 15.3412C94.386 14.4196 94.4113 13.5338 94.5897 12.615C94.641 12.3483 94.6422 12.3333 94.8952 12.3685L94.9102 12.3697C95.1195 12.3863 95.2702 12.3833 95.3875 12.4227C96.2231 12.6998 97.1101 12.7101 97.9259 12.6697C98.576 12.6311 99.1765 12.6487 99.7812 12.8021C99.8997 12.8266 100.063 12.8546 100.214 12.8516C100.364 12.8485 100.517 12.8155 100.639 12.7951C101.27 12.6196 101.534 11.9484 101.201 11.4103C100.971 11.091 100.831 11.1401 100.952 11.1347C100.523 10.8598 99.9484 10.8894 99.5584 10.8734C98.9878 10.8581 97.5936 10.7924 96.8909 10.7365C96.4722 10.7032 95.8843 10.7167 95.5164 10.6122C95.0438 10.4994 94.5331 10.4889 94.0683 10.467L94.0534 10.4658C93.7831 10.4593 93.5205 10.5438 93.3064 10.5869C92.9566 10.6344 92.6541 11.0316 92.5729 11.296C92.5097 11.7123 92.5344 11.9701 92.4904 12.5234C92.4737 12.7327 92.4457 12.896 92.441 12.9558L92.4398 12.9707C92.4202 13.4056 92.4031 13.8105 92.3698 14.2292C92.2895 15.0504 92.1607 15.9129 92.1515 16.7849C92.1548 17.3118 92.1293 17.8214 92.0578 18.3424L91.9119 19.6098L91.9107 19.6247C91.8845 19.9537 91.8895 20.2701 91.8818 20.5554C91.8749 21.0213 92.1926 21.3776 92.481 21.536C92.6395 21.6238 92.9051 21.6901 93.1007 21.6906C93.4159 21.7006 93.6772 21.6311 93.8865 21.6477C94.9942 21.7208 96.0858 21.8076 97.2025 21.9565C97.858 22.0388 98.5321 22.0773 99.1763 22.1135L99.1613 22.1123C99.4454 22.1349 99.7115 22.0056 99.8807 21.9588C100.253 21.8229 100.437 21.4011 100.359 21.0489L100.361 21.034ZM123.175 13.007C122.982 12.781 122.645 12.664 122.355 12.7162C121.913 12.7863 121.586 13.1214 121.44 13.4409C121.08 14.1797 120.658 14.9437 120.453 15.8152C120.369 16.1244 120.286 16.4038 120.188 16.6969C119.84 17.6624 119.536 18.6464 119.233 19.6154L119.152 19.8798L119.142 19.8188C119.038 19.0431 118.812 18.2879 118.614 17.5649L118.615 17.5499C118.486 17.0883 118.338 16.6852 118.311 16.2618L118.298 16.2456C118.195 15.2594 117.859 14.375 117.704 13.4899L117.705 13.475C117.573 12.8626 116.978 12.5896 116.415 12.8608L116.43 12.862C116.087 13.0152 115.776 13.3216 115.656 13.7032C115.481 14.2009 115.276 14.6963 115.098 15.2239L115.1 15.2089C114.948 15.6031 114.734 16.0225 114.666 16.4986L114.667 16.4836C114.511 17.3139 114.179 18.085 113.901 18.9356C113.82 19.185 113.694 19.4458 113.567 19.7216C113.509 19.5063 113.45 19.306 113.422 19.0931C113.306 18.2714 112.99 17.5239 112.837 16.7896C112.746 16.4212 112.653 16.0827 112.604 15.7478C112.446 14.712 112.241 13.6875 112.156 12.6726C112.081 11.9143 111.324 11.5983 110.709 11.9556L110.693 11.9694C110.614 12.0083 110.519 12.0759 110.453 12.1459C110.387 12.2159 110.048 12.505 110.21 12.9242C110.348 13.2812 110.363 13.6586 110.389 14.082C110.425 14.762 110.569 15.4204 110.698 16.0627C110.868 16.949 111.054 17.8365 111.224 18.7228C111.247 18.8149 111.286 18.8932 111.311 18.9554C111.639 20.1251 111.909 21.2751 111.994 22.4706C112.01 22.6524 112.089 22.7941 112.113 22.8713C112.221 23.2109 112.672 23.4123 112.986 23.2417C113.222 23.11 113.352 22.9999 113.429 22.9759L113.444 22.9771C113.871 22.9057 114.089 22.6221 114.255 22.4247C114.57 22.0585 114.785 21.6242 114.954 21.2012C115.297 20.2956 115.656 19.3761 116.014 18.4716C116.146 18.136 116.296 17.7568 116.344 17.3542C116.37 17.2059 116.397 17.0576 116.438 16.9254C116.726 18.2273 116.951 19.5543 117.284 20.8598C117.469 21.5517 117.721 22.1736 117.807 22.7974L117.82 22.8135C117.847 23.0414 118.013 23.2351 118.08 23.3307C118.322 23.696 118.734 23.819 119.126 23.6095L119.141 23.6107C119.394 23.4652 119.493 23.3528 119.553 23.3575C119.718 23.3556 119.977 23.1354 120.032 23.0044L120.033 22.9895C120.278 22.3769 120.521 21.7793 120.723 21.1333C120.986 20.2814 121.206 19.4111 121.47 18.5444C121.699 17.75 122.111 16.925 122.201 15.9842L122.234 15.9417C122.536 15.3638 122.701 14.8051 123.037 14.3654C123.168 14.2253 123.273 14.0381 123.33 13.8921C123.409 13.6576 123.41 13.2665 123.175 13.007ZM135.233 19.9397C135.142 20.3237 135.092 20.7711 134.934 21.24L134.933 21.255C134.76 21.7228 134.454 22.1649 134.124 22.5299C133.549 23.1462 132.888 23.6956 132.218 24.169C132.011 24.318 131.726 24.491 131.42 24.5569L131.405 24.5558C130.931 24.6535 130.412 24.7476 129.898 24.782C129.444 24.8061 128.928 24.6748 128.546 24.3735C128.205 24.1207 127.703 23.9906 127.253 23.5936C126.409 22.8644 125.776 21.9263 125.738 20.7044C125.717 19.6344 125.819 18.5441 126.127 17.5152C126.145 17.4715 126.154 17.3669 126.21 17.2209C126.415 16.3494 126.702 15.5747 127.384 14.9518L129.09 13.7482C129.341 13.6177 129.665 13.5081 130.112 13.3781C130.777 13.1601 131.421 13.1962 132.021 13.5901L132.035 13.6062C132.406 13.8614 132.855 14.0777 133.281 14.3975C134.149 15.0233 134.862 15.9075 135.024 17.0791C135.104 17.7776 135.167 18.5049 135.217 19.201C135.241 19.4588 135.222 19.698 135.233 19.9397ZM127.856 19.0371C127.816 19.5455 127.78 19.8135 127.773 20.0838C127.749 20.9546 128.133 21.6171 128.813 22.1527C129.265 22.5197 129.416 22.6973 130.115 22.798C130.654 22.8408 131.193 22.688 131.57 22.2967L131.586 22.2829C131.847 22.0328 132.126 21.739 132.419 21.4614C132.875 21.0162 133.047 20.5633 133.102 19.8755C133.118 19.6661 133.134 19.4718 133.134 19.2762C133.135 18.5088 133.065 17.8713 132.899 17.1208C132.79 16.6005 132.728 16.2495 132.403 15.9829C131.993 15.6493 131.617 15.4539 131.108 15.2329C130.906 15.1265 130.337 15.2769 130.043 15.3889L130.041 15.4039C129.329 15.6632 129.106 15.811 128.697 16.4105C128.422 16.8401 128.223 17.2606 128.109 17.7481C127.981 18.2344 127.91 18.7404 127.856 19.0371ZM146.145 24.5541C145.928 24.251 145.697 23.9466 145.464 23.6573C145.145 23.3159 144.872 22.9632 144.616 22.5817C144.256 22.0113 143.861 21.4834 143.482 20.9567L143.468 20.9405L144.55 20.3945C145.697 19.7786 146.336 18.7459 146.286 17.478C146.287 17.2824 146.254 17.1293 146.248 17.0085C146.194 16.1766 145.77 15.4507 145.148 14.9498C144.949 14.7986 144.676 14.6415 144.363 14.6015C143.66 14.5457 142.949 14.4138 142.165 14.4268C141.561 14.454 140.994 14.3938 140.438 14.1991C140.175 14.103 139.889 14.0953 139.664 14.0924C139.183 14.0843 138.666 14.5247 138.628 15.0032C138.593 15.4518 138.476 15.9692 138.567 16.5332C138.605 16.8071 138.569 17.075 138.472 17.3532C138.289 17.9406 138.181 18.5489 138.237 19.1703L138.223 19.1542C138.235 19.3808 138.204 19.589 138.155 19.8259C138.005 20.3857 138.019 20.9587 137.995 21.4533L137.996 21.4384C137.957 21.9318 137.933 22.4265 137.908 22.9211L137.794 24.3566C137.769 24.6706 138.003 24.945 138.174 25.0639C138.689 25.4058 139.387 25.5215 140.017 25.1653C140.028 24.6545 140.021 24.1725 140.014 23.6904C140.017 23.2694 139.99 22.8609 139.99 22.4847C140.015 21.5989 139.301 21.497 141.158 21.4189C141.384 21.4068 141.498 21.4911 141.602 21.695L141.587 21.6938C141.741 22.0371 141.967 22.4012 142.229 22.7079L142.215 22.6917C142.557 23.1252 142.856 23.5252 143.105 23.9963L143.12 23.9975C143.316 24.3593 143.546 24.6935 143.774 25.0427C143.964 25.2986 144.184 25.5568 144.394 25.7541C144.562 25.9179 144.873 25.9728 145.038 25.9858C145.412 26.0156 145.714 25.8139 145.922 25.6499C146.275 25.377 146.429 24.9529 146.145 24.5541ZM142.221 19.5924C142.174 19.6188 142.144 19.6164 142.053 19.6242C141.781 19.6327 141.477 19.6687 141.186 19.7359C140.894 19.818 140.627 19.7666 140.289 19.6645L140.288 19.6795C140.25 19.21 140.204 18.8452 140.281 18.445L140.405 17.6423C140.449 17.2697 140.493 16.912 140.551 16.5555C140.575 16.4521 140.705 16.327 140.797 16.3042C141.041 16.2634 141.283 16.2526 141.539 16.2429C142.006 16.2349 142.502 16.2442 142.983 16.2523L142.968 16.2511C143.388 16.2695 143.755 16.3889 143.974 16.6621C144.315 17.0956 144.418 17.51 144.208 18.0651C144.111 18.3433 143.977 18.5132 143.734 18.7346C143.313 19.1075 142.784 19.3212 142.221 19.5924ZM160.538 16.5949C160.612 16.992 160.443 17.4149 160.122 17.6603C159.993 17.7704 159.727 17.8997 159.537 17.8244C158.998 17.601 158.316 17.6671 157.595 17.4594C157.211 17.3686 156.851 17.355 156.313 17.3122L156.203 17.3637C156.161 17.7065 156.134 18.0504 156.085 18.6634C155.901 19.657 156.066 20.7986 156.022 22.1043C156.018 22.5403 156.025 22.8268 155.975 23.2592C155.952 23.5583 155.926 23.6917 155.907 23.9309C155.874 24.5302 155.774 25.0338 155.919 25.4817C156.075 25.9757 155.577 26.568 155.096 26.5599L154.553 26.5769C153.856 26.6418 153.455 26.3842 153.471 25.6181C153.471 25.4225 153.473 25.212 153.504 25.0038C153.595 24.048 153.715 23.1096 153.805 22.1687C153.831 21.8398 153.827 21.5084 153.856 21.1496C153.878 20.6848 153.887 20.3846 153.926 19.8912C153.973 19.4886 154.059 19.1644 154.008 18.8594C153.955 18.5843 154.035 18.3349 154.047 18.1854C154.083 17.9174 154.118 17.6644 154.122 17.4239C154.148 17.095 154.16 17.141 153.937 17.1082C153.535 17.0462 153.131 17.0141 152.699 16.9647C152.49 16.9481 152.398 16.9708 152.143 16.9506C151.934 16.934 151.681 16.8988 151.478 16.8074C151.04 16.6372 150.693 16.4591 150.305 16.4132C149.961 16.3859 149.792 16.0564 149.816 15.7574C149.83 15.5779 149.987 15.3045 150.162 15.183C150.369 15.049 150.712 14.8957 151.084 14.9404C151.456 15 151.826 15.0746 152.199 15.1192C153.239 15.2772 154.25 15.4328 155.298 15.3205C155.555 15.2959 155.824 15.3173 156.049 15.3351C156.647 15.3826 157.292 15.4039 157.901 15.5124C158.509 15.621 159.086 15.7421 159.696 15.8357C160.007 15.8906 160.458 16.0919 160.538 16.5949ZM172.404 17.7491C172.417 17.5846 172.441 17.2855 172.359 16.9931C172.346 16.962 172.124 16.7336 171.981 16.632C171.457 16.4098 170.698 16.6805 170.502 17.2518C170.367 17.6322 170.229 18.0426 170.155 18.3979C170.041 19.081 169.93 19.9147 169.787 20.5655C169.778 20.6852 169.773 20.745 169.757 20.7587L169.722 20.8162C169.447 20.8695 169.352 20.9372 169.264 20.9001C169.125 20.9492 168.802 20.8483 168.451 20.9107C167.539 21.0188 166.632 20.8864 165.671 21.0508L165.387 21.0282C165.18 20.9816 165.125 20.9171 165.121 20.7813C165.088 20.6282 165.104 20.4189 165.121 20.2095C165.149 19.2938 165.191 18.1987 165.353 17.2937L165.38 16.9498C165.41 16.576 165.093 16.2047 164.675 16.1714C164.45 16.1536 164.19 16.2082 163.953 16.3548C163.689 16.4542 163.485 16.754 163.467 16.9783L163.103 19.6579C163.042 20.4354 163.094 21.1017 162.936 21.7662C162.917 22.0055 162.948 22.1735 162.943 22.2483C162.971 23.2136 162.948 24.6412 162.825 25.6245C162.742 25.9039 162.798 26.1491 162.772 26.2825C162.893 27.225 163.531 27.5315 164.399 27.2093C164.6 27.1351 164.813 26.9262 164.884 26.7814C164.931 26.5745 165.095 26.2114 165.064 25.8477C165.021 25.2575 165.153 24.1545 165.097 23.5331C165.127 23.1593 164.972 22.846 165.942 22.7576C166.015 22.7785 166.162 22.8203 166.342 22.8346C166.551 22.8512 166.835 22.8738 167.124 22.8366C167.602 22.694 168.125 22.7356 168.66 22.8233C169.228 22.8684 169.396 22.656 169.549 22.8037C169.688 22.9502 169.465 23.1129 169.476 23.7308C169.524 24.4419 169.48 25.5669 169.375 26.3259C169.36 26.5054 169.397 26.6136 169.391 26.6884C169.36 27.0771 169.634 27.4149 169.813 27.6248C169.966 27.7874 170.265 27.8112 170.354 27.8183C170.564 27.8349 170.848 27.6619 170.816 27.6895C171.258 27.6193 171.457 27.1987 171.537 26.9493C171.566 26.5904 171.634 25.7232 171.606 25.3296C171.623 25.1053 171.593 24.9223 171.604 24.7878C171.695 24.2082 171.65 23.6328 171.691 23.1244C171.718 22.7805 171.7 22.433 171.725 22.119C171.888 21.214 171.865 20.3696 172.111 19.7271C172.214 18.998 172.36 18.3023 172.404 17.7491ZM87.7274 33.4366C87.8683 32.8008 87.5641 32.0844 87.6052 31.7566C87.3525 31.1497 87.1948 30.2945 86.5199 29.6991C86.481 29.6208 86.4145 29.5102 86.3182 29.3972C85.8256 28.5906 84.9462 28.295 84.3318 27.885L84.0178 27.86C83.1804 27.7935 82.3412 27.5612 81.3652 27.7244C81.2582 27.7459 81.2282 27.7436 81.111 27.7041C80.5063 27.5507 79.9613 27.4021 79.4164 27.2534C79.0234 27.0867 78.5479 27.1994 78.2299 27.4149C78.011 27.5178 77.9184 27.7362 77.8826 27.8086C77.766 27.9498 77.7505 28.1442 77.7458 28.204C77.7137 28.6077 77.6792 29.0413 77.6943 29.4187C77.7396 30.1747 77.6873 30.8326 77.5818 31.5916C77.5199 32.3692 77.5042 33.1353 77.44 33.9428C77.4114 34.3017 77.3793 34.7054 77.3035 35.0906C77.2488 35.7784 77.1355 36.4465 77.0773 37.1792C77.0273 37.8072 77.4414 38.2765 77.9218 38.4803C78.2909 38.5698 78.6348 38.5971 78.9787 38.6245C79.3907 38.5519 79.7681 38.5368 80.127 38.5653C80.8034 38.574 81.4398 38.5192 82.0612 38.4633C82.6987 38.3936 83.4445 38.2874 84.0687 38.006C84.3683 37.8342 84.7426 37.6683 85.1343 37.4738C85.6377 37.1978 86.085 36.8722 86.4531 36.405L86.452 36.4199C87.195 35.5912 87.7807 34.6597 87.7274 33.4366ZM85.3068 34.3577C85.2733 34.4001 85.1891 34.5138 85.1449 34.6909C84.6394 35.7491 83.7521 36.3106 82.5794 36.4882C81.6022 36.6663 80.6345 36.7248 79.6661 36.6026C79.5016 36.5895 79.6213 36.599 79.4592 36.5561C79.5737 35.873 79.5871 35.1367 79.6441 34.419C79.7012 33.7013 79.6937 33.0386 79.7059 32.3173C79.7285 32.0332 79.6842 31.834 79.6996 31.6397C79.7975 31.1659 79.8379 30.6575 79.7587 30.1396C79.7461 30.1085 79.7832 30.0212 79.801 29.7969C79.845 29.2436 79.7871 29.4046 80.1609 29.4343C80.5646 29.4664 81.5928 29.5933 81.8918 29.6171C82.2657 29.6468 82.5982 29.6281 82.9086 29.6979C83.6043 29.8435 84.1672 30.1441 84.6466 30.7389C85.0835 31.3003 85.3948 31.927 85.5207 32.6141C85.6998 33.2002 85.6522 33.7983 85.308 34.3427L85.3068 34.3577ZM91.0337 35.746C91.1989 34.6155 91.0792 33.2818 91.054 31.8955C91.0297 31.0659 91.0664 30.2262 91.1928 29.3936L91.1916 29.4085C91.2469 28.9013 91.684 28.5147 92.1307 28.3847C92.7167 28.2056 93.3437 28.6467 93.3721 29.2358L93.3733 29.2209C93.3697 29.2657 93.4314 29.4362 93.34 29.6396C93.1244 30.2694 93.1492 30.9034 93.2417 31.633L93.2405 31.648C93.2784 32.1175 93.2128 32.5637 93.228 32.9411C93.2866 34.2849 93.2605 35.9381 93.1547 37.2689C93.1452 37.3885 93.153 37.4794 93.1884 37.6026C93.4004 38.3417 93.0353 38.9597 92.6683 39.4121C92.4513 39.6807 92.1038 39.6982 91.9244 39.6839C91.4746 39.6632 91.1785 39.414 91.0874 39.0456C90.8705 38.3663 90.7781 37.6366 90.9422 36.8973L90.941 36.9123C90.9864 36.7203 91.0004 36.1646 91.0337 35.746ZM104.584 32.5801C104.741 32.8784 105.055 33.4752 105.56 33.5605L105.724 33.5736C106.164 33.5333 106.43 33.2084 106.503 33.0487C106.711 32.5234 106.296 31.6779 106.089 31.4508C105.827 31.1441 105.548 30.8661 105.299 30.5905C105.229 30.5247 105.159 30.459 105.118 30.4105C104.909 30.1983 104.685 29.9849 104.475 29.7877L104.108 29.4876C104.036 29.4517 103.978 29.4171 103.905 29.3962C103.541 29.2319 103.141 29.1549 102.797 29.1276C101.945 29.0598 101.098 29.3084 100.365 29.8219C99.5211 30.4019 98.6093 31.0818 97.9131 32.0797L97.9119 32.0947C97.4995 32.739 96.9831 33.5556 96.8598 34.539C96.7567 35.2681 96.7732 36.0067 96.8004 36.6108C96.8902 37.9421 97.396 38.9604 98.3275 39.5461C99.5026 40.2865 100.554 40.6861 101.616 40.7705C101.87 40.7908 102.14 40.7972 102.397 40.7875L102.412 40.7887C103.819 40.6899 104.961 40.1487 105.763 39.1441C105.915 38.9305 106.006 38.351 105.815 38.11C105.652 37.8864 105.313 37.7993 105.149 37.7862C105.104 37.7826 104.999 37.7743 104.892 37.7959C104.68 37.8091 104.501 37.9755 104.422 38.0293C104.374 38.0706 104.356 38.0994 104.341 38.0982L104.356 38.0994C104.121 38.2161 103.996 38.462 103.981 38.4608C103.651 38.6452 103.397 38.8056 103.12 38.8888C102.812 38.9697 102.537 39.0231 102.223 38.9981C101.655 38.9529 100.726 38.7136 100.156 38.5027C98.7975 37.9884 98.7866 36.4226 98.966 35.1127C99.1549 33.6832 99.8505 32.5046 101.052 31.5919C101.485 31.2502 101.948 31.1065 102.501 31.1505C103.309 31.2147 104.067 31.7113 104.518 32.4695C104.533 32.4707 104.559 32.5179 104.584 32.5801ZM117.479 40.151C117.348 39.7192 117.096 39.2929 116.804 38.9838C116.085 38.1893 115.591 37.2171 114.861 36.3615C114.587 36.0238 114.365 35.5998 114.081 35.201C113.932 34.9936 113.935 34.9487 114.182 34.6824C114.249 34.5975 114.266 34.5688 114.328 34.5436C114.815 34.2964 115.177 33.9038 115.516 33.6148L115.531 33.616C115.871 33.312 116.196 33.0068 116.521 32.7016C116.732 32.5078 116.893 32.3851 117.108 32.3269C117.277 32.2802 117.405 32.1851 117.483 32.1461C118.004 31.8415 118.128 31.2343 117.791 30.7411C117.478 30.325 116.963 30.1787 116.52 30.4444C116.379 30.5235 116.221 30.6162 116.09 30.7413C115.589 31.1829 115.072 31.6234 114.597 32.1122L114.613 32.0985C114.256 32.4312 113.916 32.7352 113.545 33.0368L113.562 33.023C113.051 33.3887 112.522 33.7981 112.075 34.3043C111.925 34.488 111.733 34.6382 111.509 34.801L111.543 34.7585C111.511 34.5904 111.507 34.4547 111.547 34.3225C111.748 33.4958 111.678 32.3015 111.766 31.5711C111.805 31.2733 111.781 31.0006 111.785 30.7601C111.784 30.3989 111.387 29.9009 111.032 29.8275C110.543 29.7284 110.017 29.9123 109.871 30.4273L109.872 30.4124C109.814 30.5733 109.721 30.7916 109.701 31.0458C109.689 31.3909 109.711 31.8742 109.701 32.1894C109.615 33.6422 109.508 35.3641 109.348 36.811C109.252 37.646 109.308 38.448 109.202 39.2219L109.203 39.207C109.141 39.6083 109.231 39.9917 109.253 40.2793C109.281 40.4922 109.403 40.6674 109.443 40.7308C109.656 41.0788 110.143 41.1928 110.484 41.0694C110.872 40.9197 111.277 40.5607 111.306 40.0062L111.305 40.0212C111.324 39.7819 111.325 39.5714 111.342 39.3621L111.343 39.3471C111.369 38.8375 111.393 38.3429 111.435 37.8195C111.463 37.4607 111.593 37.155 111.865 36.9509L111.88 36.9521C112.072 36.8019 112.192 36.6158 112.291 36.5183L112.307 36.5045C112.622 36.8907 112.919 37.3206 113.31 37.6978L113.295 37.6966C113.422 37.812 113.475 37.8915 113.512 37.9998C113.682 38.5099 114.012 38.8973 114.288 39.2201C114.534 39.5256 114.766 39.8299 114.981 40.148C115.291 40.609 115.667 40.985 115.982 41.3712C116.273 41.6952 116.661 41.7261 116.981 41.4957C117.506 41.1312 117.643 40.7358 117.479 40.151Z" fill="#7B7B7B"/>
<path d="M33.1515 41.5481C34.2324 41.6341 35.2481 41.6528 36.2126 41.6114C36.4536 40.2682 36.0819 38.9097 34.9238 37.9935C33.6686 37.0006 26.3404 35.0359 25.3618 36.9986C23.477 40.7789 29.6655 41.271 33.1258 41.5461L33.1515 41.5481Z" fill="#7B7B7B"/>
<path d="M51.2173 29.7863C50.9526 33.1152 51.3046 35.8638 47.5893 37.9448C43.1681 40.4211 39.1713 42.0268 33.1515 41.5481C29.6963 41.2734 23.4723 40.7883 25.3618 36.9986C26.3404 35.0359 33.6686 37.0006 34.9238 37.9935C37.3061 39.8781 36.3608 43.6344 33.5997 45.2793C29.4523 47.75 22.0031 48.4389 16.8789 49.493C13.5513 50.1776 5.04895 52.1576 1.52031 51.1461C0.67552 50.904 6.85151 47.5553 7.40325 46.8918" stroke="black" stroke-linecap="round"/>
<path d="M1.80518 51.7259C4.89961 52.8527 8.44245 53.8746 11.2182 55.114" stroke="black" stroke-linecap="round"/>
</svg>
